<?xml version="1.0" encoding="UTF-8"?>
<svg xmlns="http://www.w3.org/2000/svg" xmlns:xlink="http://www.w3.org/1999/xlink" width="150px" height="150px" viewBox="0 0 150 150" version="1.1">
<defs>
<clipPath id="clip1">
  <path d="M 77.902344 39.226562 L 101.601562 39.226562 L 101.601562 62.925781 L 77.902344 62.925781 Z M 77.902344 39.226562 "/>
</clipPath>
<clipPath id="clip2">
  <path d="M 61.890625 50.71875 L 68.382812 50.71875 L 68.382812 75.207031 L 61.890625 75.207031 Z M 61.890625 50.71875 "/>
</clipPath>
<clipPath id="clip3">
  <path d="M 49.433594 42.304688 L 97.777344 42.304688 L 97.777344 90.648438 L 49.433594 90.648438 Z M 49.433594 42.304688 "/>
</clipPath>
<clipPath id="clip4">
  <path d="M 73.605469 42.304688 C 60.253906 42.304688 49.433594 53.125 49.433594 66.476562 C 49.433594 79.824219 60.253906 90.648438 73.605469 90.648438 C 86.953125 90.648438 97.777344 79.824219 97.777344 66.476562 C 97.777344 53.125 86.953125 42.304688 73.605469 42.304688 Z M 73.605469 42.304688 "/>
</clipPath>
</defs>
<g id="surface1">
<rect x="0" y="0" width="150" height="150" style="fill:rgb(100%,100%,100%);fill-opacity:1;stroke:none;"/>
<g clip-path="url(#clip1)" clip-rule="nonzero">
<path style=" stroke:none;fill-rule:nonzero;fill:rgb(7.058824%,54.509807%,74.901962%);fill-opacity:1;" d="M 101.601562 39.226562 L 101.601562 62.960938 C 101.601562 62.148438 101.5625 61.34375 101.480469 60.539062 C 101.398438 59.746094 101.28125 58.960938 101.121094 58.179688 C 100.964844 57.414062 100.765625 56.648438 100.535156 55.90625 C 100.304688 55.167969 100.039062 54.4375 99.738281 53.726562 C 99.136719 52.3125 98.40625 50.964844 97.546875 49.691406 C 96.695312 48.429688 95.726562 47.257812 94.648438 46.179688 C 93.570312 45.101562 92.398438 44.136719 91.136719 43.28125 C 89.863281 42.421875 88.519531 41.691406 87.105469 41.09375 C 86.394531 40.792969 85.660156 40.523438 84.921875 40.292969 C 84.179688 40.0625 83.414062 39.867188 82.648438 39.710938 C 81.867188 39.550781 81.082031 39.429688 80.292969 39.351562 C 79.484375 39.269531 78.675781 39.226562 77.867188 39.226562 Z M 101.601562 39.226562 "/>
</g>
<g clip-path="url(#clip2)" clip-rule="nonzero">
<path style=" stroke:none;fill-rule:nonzero;fill:rgb(100%,100%,100%);fill-opacity:1;" d="M 61.890625 50.71875 L 68.382812 50.71875 L 68.382812 75.214844 L 61.890625 75.214844 Z M 61.890625 50.71875 "/>
</g>
<g clip-path="url(#clip3)" clip-rule="nonzero">
<g clip-path="url(#clip4)" clip-rule="nonzero">
<path style=" stroke:none;fill-rule:nonzero;fill:rgb(100%,18.82353%,45.490196%);fill-opacity:1;" d="M 49.433594 42.304688 L 97.777344 42.304688 L 97.777344 90.648438 L 49.433594 90.648438 Z M 49.433594 42.304688 "/>
</g>
</g>
<path style=" stroke:none;fill-rule:nonzero;fill:rgb(7.058824%,54.509807%,74.901962%);fill-opacity:1;" d="M 28.632812 106.214844 C 28.894531 106.214844 29.125 106.121094 29.308594 105.941406 C 29.480469 105.773438 29.574219 105.546875 29.574219 105.285156 L 29.574219 103.222656 L 31.824219 103.222656 C 32.976562 103.222656 34.019531 102.777344 34.800781 102.015625 C 35.574219 101.257812 36.019531 100.222656 36.019531 99.097656 C 36.019531 97.941406 35.550781 96.804688 34.789062 96.054688 C 34.011719 95.289062 32.964844 94.839844 31.824219 94.839844 L 28.632812 94.839844 C 28.375 94.839844 28.152344 94.933594 27.964844 95.121094 C 27.792969 95.289062 27.683594 95.546875 27.683594 95.789062 L 27.683594 105.285156 C 27.683594 105.546875 27.777344 105.757812 27.964844 105.941406 C 28.144531 106.121094 28.363281 106.214844 28.632812 106.214844 Z M 29.574219 101.328125 L 29.574219 96.746094 L 31.855469 96.746094 C 32.464844 96.746094 33.03125 97.003906 33.449219 97.441406 C 33.855469 97.847656 34.105469 98.503906 34.105469 99.097656 C 34.105469 99.664062 33.871094 100.222656 33.457031 100.640625 C 33.039062 101.078125 32.464844 101.328125 31.851562 101.328125 Z M 29.574219 101.328125 "/>
<path style=" stroke:none;fill-rule:nonzero;fill:rgb(7.058824%,54.509807%,74.901962%);fill-opacity:1;" d="M 38.089844 106.128906 C 38.335938 106.128906 38.570312 106.027344 38.746094 105.851562 C 38.929688 105.664062 39.007812 105.445312 39.007812 105.191406 L 39.007812 102.195312 C 39.023438 101.539062 39.304688 100.941406 39.753906 100.492188 C 40.210938 100.046875 40.816406 99.777344 41.453125 99.773438 L 41.496094 99.773438 C 41.773438 99.773438 42.003906 99.679688 42.195312 99.496094 C 42.371094 99.328125 42.476562 99.085938 42.476562 98.820312 C 42.476562 98.265625 42.109375 97.882812 41.496094 97.882812 L 41.476562 97.882812 C 40.308594 97.882812 39.214844 98.351562 38.402344 99.164062 C 37.589844 99.976562 37.117188 101.085938 37.117188 102.257812 L 37.117188 105.191406 C 37.117188 105.453125 37.210938 105.679688 37.402344 105.851562 C 37.601562 106.035156 37.820312 106.128906 38.089844 106.128906 Z M 38.089844 106.128906 "/>
<path style=" stroke:none;fill-rule:nonzero;fill:rgb(7.058824%,54.509807%,74.901962%);fill-opacity:1;" d="M 47.210938 106.222656 C 48.34375 106.222656 49.398438 105.757812 50.160156 105.003906 C 50.9375 104.222656 51.386719 103.191406 51.386719 102.058594 C 51.386719 100.933594 50.921875 99.882812 50.160156 99.101562 C 49.398438 98.339844 48.34375 97.882812 47.210938 97.882812 C 46.085938 97.882812 45.046875 98.328125 44.273438 99.101562 C 43.5 99.882812 43.042969 100.933594 43.042969 102.058594 C 43.042969 103.191406 43.5 104.242188 44.273438 105.003906 C 45.046875 105.777344 46.085938 106.222656 47.210938 106.222656 Z M 47.210938 104.328125 C 46.597656 104.328125 46.035156 104.078125 45.617188 103.660156 C 45.199219 103.242188 44.949219 102.679688 44.949219 102.058594 C 44.949219 101.445312 45.199219 100.882812 45.617188 100.464844 C 46.023438 100.054688 46.605469 99.804688 47.210938 99.804688 C 47.828125 99.804688 48.410156 100.054688 48.816406 100.464844 C 49.234375 100.882812 49.484375 101.445312 49.484375 102.058594 C 49.484375 102.679688 49.25 103.242188 48.828125 103.660156 C 48.410156 104.078125 47.835938 104.328125 47.210938 104.328125 Z M 47.210938 104.328125 "/>
<path style=" stroke:none;fill-rule:nonzero;fill:rgb(7.058824%,54.509807%,74.901962%);fill-opacity:1;" d="M 56.503906 106.128906 C 57.195312 106.121094 57.832031 105.839844 58.289062 105.359375 C 58.734375 104.890625 58.976562 104.257812 58.976562 103.585938 C 58.976562 102.910156 58.714844 102.246094 58.269531 101.773438 C 57.816406 101.285156 57.175781 100.992188 56.464844 100.992188 L 54.851562 100.992188 C 54.535156 100.992188 54.253906 100.753906 54.253906 100.382812 C 54.253906 100.054688 54.519531 99.777344 54.851562 99.777344 L 57.671875 99.777344 C 57.921875 99.777344 58.132812 99.683594 58.316406 99.503906 C 58.488281 99.316406 58.578125 99.085938 58.578125 98.804688 C 58.578125 98.234375 58.164062 97.882812 57.628906 97.882812 L 54.828125 97.882812 C 54.152344 97.882812 53.535156 98.148438 53.082031 98.601562 C 52.628906 99.046875 52.359375 99.664062 52.359375 100.316406 C 52.359375 100.992188 52.621094 101.632812 53.066406 102.121094 C 53.507812 102.609375 54.132812 102.898438 54.828125 102.898438 L 56.296875 102.898438 C 56.507812 102.898438 56.691406 102.941406 56.832031 103.035156 C 56.996094 103.148438 57.082031 103.308594 57.082031 103.539062 C 57.082031 103.757812 56.996094 103.933594 56.832031 104.058594 C 56.691406 104.171875 56.519531 104.226562 56.328125 104.226562 L 53.082031 104.226562 C 52.566406 104.226562 52.207031 104.589844 52.207031 105.164062 C 52.207031 105.742188 52.570312 106.128906 53.082031 106.128906 Z M 56.503906 106.128906 "/>
<path style=" stroke:none;fill-rule:nonzero;fill:rgb(7.058824%,54.509807%,74.901962%);fill-opacity:1;" d="M 61.042969 109.085938 C 61.621094 109.085938 61.976562 108.664062 61.976562 108.089844 L 61.976562 105.539062 C 62.667969 105.992188 63.433594 106.222656 64.257812 106.222656 C 65.375 106.222656 66.4375 105.757812 67.199219 105.003906 C 67.976562 104.222656 68.417969 103.191406 68.417969 102.058594 C 68.417969 100.933594 67.957031 99.882812 67.199219 99.101562 C 66.4375 98.339844 65.375 97.882812 64.257812 97.882812 C 63.132812 97.882812 62.089844 98.328125 61.3125 99.101562 C 60.53125 99.882812 60.082031 100.933594 60.082031 102.058594 L 60.082031 108.089844 C 60.082031 108.367188 60.1875 108.621094 60.371094 108.796875 C 60.550781 108.992188 60.78125 109.085938 61.042969 109.085938 Z M 64.257812 104.328125 C 63.644531 104.328125 63.070312 104.078125 62.652344 103.660156 C 62.230469 103.242188 61.988281 102.679688 61.988281 102.058594 C 61.988281 101.445312 62.230469 100.882812 62.652344 100.464844 C 63.0625 100.054688 63.644531 99.804688 64.257812 99.804688 C 64.875 99.804688 65.457031 100.054688 65.863281 100.464844 C 66.28125 100.882812 66.527344 101.445312 66.527344 102.058594 C 66.527344 102.679688 66.28125 103.242188 65.863281 103.660156 C 65.445312 104.078125 64.875 104.328125 64.257812 104.328125 Z M 64.257812 104.328125 "/>
<path style=" stroke:none;fill-rule:nonzero;fill:rgb(7.058824%,54.509807%,74.901962%);fill-opacity:1;" d="M 73.363281 106.222656 C 74.121094 106.222656 74.78125 106.101562 75.238281 105.871094 C 75.6875 105.640625 75.957031 105.316406 75.957031 104.941406 C 75.957031 104.691406 75.851562 104.433594 75.6875 104.257812 C 75.5 104.058594 75.28125 103.960938 75.027344 103.960938 C 74.863281 103.960938 74.675781 104.015625 74.46875 104.132812 C 74.164062 104.316406 73.871094 104.402344 73.363281 104.402344 C 72.890625 104.402344 72.464844 104.265625 72.082031 103.984375 C 71.703125 103.703125 71.433594 103.339844 71.289062 102.914062 L 76.632812 102.914062 C 77.175781 102.914062 77.5625 102.558594 77.5625 102.007812 C 77.539062 100.890625 77.0625 99.839844 76.308594 99.085938 C 75.527344 98.328125 74.488281 97.882812 73.363281 97.882812 C 72.238281 97.882812 71.175781 98.339844 70.402344 99.101562 C 69.625 99.867188 69.171875 100.921875 69.171875 102.058594 C 69.171875 103.191406 69.625 104.242188 70.402344 105.003906 C 71.175781 105.757812 72.238281 106.222656 73.363281 106.222656 Z M 71.234375 101.328125 C 71.359375 100.871094 71.632812 100.445312 72.007812 100.164062 C 72.40625 99.847656 72.882812 99.695312 73.402344 99.695312 C 73.9375 99.695312 74.40625 99.847656 74.8125 100.148438 C 75.195312 100.445312 75.476562 100.851562 75.613281 101.328125 Z M 71.234375 101.328125 "/>
<path style=" stroke:none;fill-rule:nonzero;fill:rgb(7.058824%,54.509807%,74.901962%);fill-opacity:1;" d="M 79.667969 106.128906 C 79.910156 106.128906 80.148438 106.027344 80.324219 105.851562 C 80.503906 105.664062 80.585938 105.445312 80.585938 105.191406 L 80.585938 102.195312 C 80.597656 101.539062 80.878906 100.941406 81.328125 100.492188 C 81.785156 100.046875 82.390625 99.777344 83.027344 99.773438 L 83.074219 99.773438 C 83.347656 99.773438 83.578125 99.679688 83.773438 99.496094 C 83.949219 99.328125 84.054688 99.085938 84.054688 98.820312 C 84.054688 98.265625 83.683594 97.882812 83.074219 97.882812 L 83.054688 97.882812 C 81.886719 97.882812 80.792969 98.351562 79.980469 99.164062 C 79.167969 99.976562 78.691406 101.085938 78.691406 102.257812 L 78.691406 105.191406 C 78.691406 105.453125 78.785156 105.679688 78.980469 105.851562 C 79.179688 106.035156 79.398438 106.128906 79.667969 106.128906 Z M 79.667969 106.128906 "/>
<path style=" stroke:none;fill-rule:nonzero;fill:rgb(7.058824%,54.509807%,74.901962%);fill-opacity:1;" d="M 88.785156 106.222656 C 89.617188 106.222656 90.386719 105.992188 91.082031 105.527344 C 91.191406 105.941406 91.53125 106.203125 91.972656 106.203125 C 92.25 106.203125 92.480469 106.109375 92.660156 105.914062 C 92.847656 105.726562 92.941406 105.496094 92.941406 105.226562 L 92.941406 102.058594 C 92.941406 100.921875 92.488281 99.882812 91.730469 99.101562 C 90.949219 98.328125 89.917969 97.882812 88.785156 97.882812 C 87.667969 97.882812 86.617188 98.339844 85.855469 99.101562 C 85.097656 99.882812 84.636719 100.933594 84.636719 102.058594 C 84.636719 103.191406 85.082031 104.222656 85.855469 105.003906 C 86.617188 105.757812 87.667969 106.222656 88.785156 106.222656 Z M 88.785156 104.328125 C 88.175781 104.328125 87.613281 104.078125 87.199219 103.660156 C 86.78125 103.242188 86.542969 102.679688 86.542969 102.058594 C 86.542969 101.445312 86.78125 100.882812 87.199219 100.464844 C 87.617188 100.046875 88.179688 99.804688 88.785156 99.804688 C 89.40625 99.804688 89.988281 100.054688 90.394531 100.464844 C 90.804688 100.882812 91.042969 101.445312 91.042969 102.058594 C 91.042969 102.679688 90.804688 103.242188 90.394531 103.660156 C 89.972656 104.078125 89.40625 104.328125 88.785156 104.328125 Z M 88.785156 104.328125 "/>
<path style=" stroke:none;fill-rule:nonzero;fill:rgb(7.058824%,54.509807%,74.901962%);fill-opacity:1;" d="M 101.054688 106.128906 C 101.605469 106.128906 102.007812 105.734375 102.007812 105.191406 C 102.007812 104.921875 101.914062 104.703125 101.730469 104.523438 C 101.554688 104.339844 101.324219 104.246094 101.054688 104.246094 L 96.75 104.242188 L 96.75 95.777344 C 96.75 95.515625 96.65625 95.289062 96.480469 95.117188 C 96.300781 94.933594 96.070312 94.839844 95.804688 94.839844 C 95.539062 94.839844 95.320312 94.933594 95.136719 95.117188 C 94.949219 95.304688 94.855469 95.523438 94.855469 95.777344 L 94.855469 105.195312 C 94.855469 105.445312 94.945312 105.660156 95.117188 105.847656 C 95.292969 106.015625 95.519531 106.128906 95.761719 106.128906 Z M 101.054688 106.128906 "/>
<path style=" stroke:none;fill-rule:nonzero;fill:rgb(7.058824%,54.509807%,74.901962%);fill-opacity:1;" d="M 104.460938 97.035156 C 104.734375 97.035156 104.996094 96.929688 105.195312 96.726562 C 105.398438 96.523438 105.503906 96.277344 105.503906 95.996094 C 105.503906 95.722656 105.390625 95.453125 105.195312 95.257812 C 104.996094 95.058594 104.742188 94.960938 104.460938 94.960938 C 104.164062 94.960938 103.921875 95.058594 103.722656 95.257812 C 103.527344 95.453125 103.414062 95.722656 103.414062 95.996094 C 103.414062 96.277344 103.523438 96.523438 103.722656 96.726562 C 103.929688 96.933594 104.179688 97.035156 104.460938 97.035156 Z M 104.460938 106.203125 C 104.722656 106.203125 104.945312 106.109375 105.128906 105.933594 C 105.304688 105.753906 105.398438 105.527344 105.398438 105.265625 L 105.398438 98.828125 C 105.398438 98.585938 105.296875 98.335938 105.132812 98.164062 C 104.945312 97.976562 104.722656 97.882812 104.464844 97.882812 C 104.203125 97.882812 103.953125 97.992188 103.785156 98.164062 C 103.601562 98.335938 103.492188 98.585938 103.492188 98.828125 L 103.492188 105.265625 C 103.492188 105.527344 103.585938 105.753906 103.785156 105.933594 C 103.964844 106.109375 104.195312 106.203125 104.460938 106.203125 Z M 104.460938 106.203125 "/>
<path style=" stroke:none;fill-rule:nonzero;fill:rgb(7.058824%,54.509807%,74.901962%);fill-opacity:1;" d="M 107.804688 106.128906 C 108.054688 106.128906 108.292969 106.027344 108.46875 105.851562 C 108.644531 105.679688 108.730469 105.460938 108.730469 105.195312 L 108.730469 101.921875 C 108.730469 101.339844 108.957031 100.789062 109.332031 100.402344 C 109.710938 100.015625 110.238281 99.789062 110.824219 99.789062 C 111.398438 99.789062 111.9375 100.015625 112.335938 100.421875 C 112.738281 100.804688 112.980469 101.351562 112.988281 101.933594 L 112.988281 105.195312 C 112.988281 105.460938 113.082031 105.679688 113.273438 105.851562 C 113.457031 106.035156 113.6875 106.128906 113.949219 106.128906 C 114.21875 106.128906 114.4375 106.035156 114.617188 105.851562 C 114.800781 105.679688 114.882812 105.460938 114.882812 105.195312 L 114.882812 101.921875 C 114.882812 100.828125 114.449219 99.816406 113.695312 99.058594 C 112.949219 98.316406 111.925781 97.882812 110.824219 97.882812 C 109.726562 97.882812 108.726562 98.308594 107.992188 99.058594 C 107.25 99.816406 106.824219 100.820312 106.824219 101.921875 L 106.824219 105.195312 C 106.824219 105.453125 106.929688 105.679688 107.125 105.851562 C 107.292969 106.027344 107.542969 106.128906 107.804688 106.128906 Z M 107.804688 106.128906 "/>
<path style=" stroke:none;fill-rule:nonzero;fill:rgb(7.058824%,54.509807%,74.901962%);fill-opacity:1;" d="M 117.335938 106.128906 C 117.582031 106.128906 117.824219 106.027344 117.992188 105.851562 C 118.175781 105.683594 118.269531 105.460938 118.269531 105.195312 L 118.269531 102.910156 L 121.398438 105.820312 C 121.582031 105.996094 121.820312 106.101562 122.101562 106.109375 C 122.351562 106.109375 122.5625 106.007812 122.75 105.808594 C 122.9375 105.617188 123.039062 105.382812 123.039062 105.128906 C 123.039062 104.878906 122.949219 104.683594 122.78125 104.523438 L 119.898438 101.847656 L 122.300781 99.632812 C 122.492188 99.453125 122.601562 99.210938 122.601562 98.960938 C 122.601562 98.722656 122.480469 98.464844 122.300781 98.289062 C 122.117188 98.121094 121.855469 98.007812 121.617188 98.007812 C 121.375 98.007812 121.167969 98.097656 121 98.257812 L 118.269531 100.777344 L 118.273438 95.859375 C 118.273438 95.589844 118.179688 95.371094 118 95.191406 C 117.8125 95.007812 117.59375 94.929688 117.335938 94.929688 C 117.082031 94.929688 116.855469 95.007812 116.667969 95.191406 C 116.476562 95.371094 116.375 95.589844 116.375 95.859375 L 116.375 105.195312 C 116.375 105.460938 116.476562 105.679688 116.664062 105.851562 C 116.835938 106.035156 117.070312 106.128906 117.335938 106.128906 Z M 117.335938 106.128906 "/>
<path style=" stroke:none;fill-rule:nonzero;fill:rgb(100%,100%,100%);fill-opacity:1;" d="M 62.730469 91.789062 C 64.792969 91.789062 66.089844 90.277344 66.089844 88.214844 L 66.089844 78.996094 C 68.589844 80.625 71.332031 81.457031 74.324219 81.457031 C 78.363281 81.457031 82.1875 79.796875 84.933594 77.050781 C 87.738281 74.246094 89.34375 70.515625 89.34375 66.4375 C 89.34375 62.371094 87.675781 58.578125 84.933594 55.769531 C 82.1875 53.027344 78.363281 51.363281 74.324219 51.363281 C 70.257812 51.363281 66.496094 52.964844 63.6875 55.769531 C 60.882812 58.578125 59.246094 62.371094 59.246094 66.4375 L 59.246094 88.214844 C 59.246094 89.203125 59.644531 90.125 60.292969 90.738281 C 60.945312 91.453125 61.777344 91.789062 62.730469 91.789062 Z M 74.324219 74.613281 C 72.105469 74.613281 70.039062 73.71875 68.527344 72.207031 C 67.019531 70.695312 66.121094 68.664062 66.121094 66.4375 C 66.121094 64.21875 67.019531 62.183594 68.527344 60.675781 C 70.007812 59.195312 72.105469 58.300781 74.324219 58.300781 C 76.542969 58.300781 78.644531 59.195312 80.125 60.675781 C 81.632812 62.183594 82.496094 64.21875 82.496094 66.4375 C 82.496094 68.664062 81.632812 70.695312 80.125 72.207031 C 78.613281 73.71875 76.542969 74.613281 74.324219 74.613281 Z M 74.324219 74.613281 "/>
<path style=" stroke:none;fill-rule:nonzero;fill:rgb(7.058824%,54.509807%,74.901962%);fill-opacity:1;" d="M 36.007812 119.308594 C 36.164062 119.308594 36.269531 119.195312 36.269531 119.046875 C 36.269531 118.96875 36.246094 118.90625 36.195312 118.859375 C 36.144531 118.808594 36.082031 118.78125 36.007812 118.78125 L 34.808594 118.78125 L 34.808594 116.425781 C 34.808594 116.351562 34.785156 116.289062 34.734375 116.238281 C 34.683594 116.1875 34.621094 116.164062 34.546875 116.164062 C 34.472656 116.164062 34.410156 116.1875 34.359375 116.238281 C 34.308594 116.289062 34.285156 116.351562 34.285156 116.425781 L 34.285156 119.046875 C 34.285156 119.121094 34.300781 119.175781 34.351562 119.226562 C 34.402344 119.277344 34.464844 119.308594 34.535156 119.308594 Z M 36.007812 119.308594 "/>
<path style=" stroke:none;fill-rule:nonzero;fill:rgb(7.058824%,54.509807%,74.901962%);fill-opacity:1;" d="M 39.390625 119.328125 C 39.46875 119.328125 39.53125 119.300781 39.578125 119.25 C 39.628906 119.207031 39.65625 119.144531 39.65625 119.070312 L 39.65625 116.421875 C 39.65625 116.269531 39.542969 116.164062 39.390625 116.164062 C 39.324219 116.164062 39.261719 116.1875 39.203125 116.238281 C 39.15625 116.289062 39.128906 116.351562 39.128906 116.421875 L 39.128906 119.070312 C 39.128906 119.144531 39.15625 119.203125 39.203125 119.25 C 39.253906 119.300781 39.316406 119.328125 39.390625 119.328125 Z M 39.390625 119.328125 "/>
<path style=" stroke:none;fill-rule:nonzero;fill:rgb(7.058824%,54.509807%,74.901962%);fill-opacity:1;" d="M 42.921875 119.328125 C 42.996094 119.328125 43.058594 119.300781 43.113281 119.25 C 43.171875 119.203125 43.195312 119.140625 43.195312 119.058594 L 43.195312 117.414062 C 43.195312 116.945312 43.414062 116.707031 43.796875 116.707031 C 43.976562 116.707031 44.132812 116.777344 44.238281 116.902344 C 44.347656 117.027344 44.402344 117.203125 44.402344 117.421875 L 44.402344 119.058594 C 44.402344 119.140625 44.425781 119.203125 44.484375 119.25 C 44.535156 119.300781 44.597656 119.328125 44.671875 119.328125 C 44.746094 119.328125 44.816406 119.300781 44.863281 119.25 C 44.921875 119.195312 44.945312 119.132812 44.945312 119.058594 L 44.945312 117.421875 C 44.945312 117.050781 44.839844 116.734375 44.640625 116.515625 C 44.433594 116.289062 44.140625 116.164062 43.777344 116.164062 C 43.425781 116.164062 43.144531 116.289062 42.945312 116.515625 C 42.753906 116.734375 42.652344 117.03125 42.652344 117.375 L 42.652344 119.058594 C 42.652344 119.140625 42.675781 119.203125 42.726562 119.25 C 42.785156 119.300781 42.851562 119.328125 42.921875 119.328125 Z M 42.921875 119.328125 "/>
<path style=" stroke:none;fill-rule:nonzero;fill:rgb(7.058824%,54.509807%,74.901962%);fill-opacity:1;" d="M 48.203125 119.308594 C 48.277344 119.308594 48.339844 119.28125 48.390625 119.234375 C 48.441406 119.183594 48.464844 119.121094 48.464844 119.046875 L 48.464844 118.050781 L 49.742188 119.226562 C 49.789062 119.28125 49.847656 119.308594 49.921875 119.308594 C 49.996094 119.308594 50.058594 119.277344 50.117188 119.226562 C 50.160156 119.175781 50.191406 119.109375 50.191406 119.039062 C 50.191406 118.96875 50.164062 118.90625 50.117188 118.859375 L 48.851562 117.6875 L 50.046875 116.621094 C 50.101562 116.570312 50.128906 116.507812 50.128906 116.433594 C 50.128906 116.359375 50.097656 116.289062 50.046875 116.238281 C 49.996094 116.1875 49.929688 116.164062 49.859375 116.164062 C 49.796875 116.164062 49.734375 116.1875 49.679688 116.238281 L 48.464844 117.328125 L 48.464844 116.421875 C 48.464844 116.351562 48.441406 116.289062 48.390625 116.238281 C 48.339844 116.1875 48.277344 116.164062 48.203125 116.164062 C 48.132812 116.164062 48.070312 116.1875 48.015625 116.238281 C 47.964844 116.289062 47.941406 116.351562 47.941406 116.421875 L 47.941406 119.046875 C 47.941406 119.121094 47.964844 119.183594 48.015625 119.234375 C 48.066406 119.28125 48.128906 119.308594 48.203125 119.308594 Z M 48.203125 119.308594 "/>
<path style=" stroke:none;fill-rule:nonzero;fill:rgb(7.058824%,54.509807%,74.901962%);fill-opacity:1;" d="M 57.363281 119.332031 C 57.4375 119.332031 57.5 119.308594 57.550781 119.257812 C 57.597656 119.203125 57.628906 119.140625 57.628906 119.070312 L 57.628906 116.6875 L 58.300781 116.6875 C 58.367188 116.6875 58.4375 116.65625 58.488281 116.613281 C 58.535156 116.5625 58.566406 116.5 58.566406 116.433594 C 58.566406 116.359375 58.535156 116.296875 58.488281 116.238281 C 58.4375 116.195312 58.367188 116.164062 58.300781 116.164062 L 56.4375 116.164062 C 56.363281 116.164062 56.300781 116.1875 56.25 116.238281 C 56.199219 116.289062 56.175781 116.351562 56.175781 116.425781 C 56.175781 116.5 56.199219 116.5625 56.25 116.613281 C 56.300781 116.664062 56.363281 116.6875 56.4375 116.6875 L 57.105469 116.6875 L 57.105469 119.070312 C 57.105469 119.21875 57.21875 119.332031 57.363281 119.332031 Z M 57.363281 119.332031 "/>
<path style=" stroke:none;fill-rule:nonzero;fill:rgb(7.058824%,54.509807%,74.901962%);fill-opacity:1;" d="M 62.464844 119.332031 C 62.785156 119.332031 63.078125 119.214844 63.296875 119 C 63.515625 118.789062 63.640625 118.488281 63.640625 118.15625 L 63.640625 117.339844 C 63.640625 117 63.515625 116.703125 63.296875 116.488281 C 63.078125 116.28125 62.785156 116.15625 62.464844 116.15625 C 62.152344 116.15625 61.851562 116.28125 61.640625 116.488281 C 61.421875 116.707031 61.289062 117 61.289062 117.339844 L 61.289062 118.15625 C 61.289062 118.488281 61.421875 118.78125 61.640625 119 C 61.851562 119.214844 62.152344 119.332031 62.464844 119.332031 Z M 62.464844 118.800781 C 62.289062 118.800781 62.132812 118.738281 62.015625 118.625 C 61.890625 118.515625 61.820312 118.359375 61.820312 118.15625 L 61.820312 117.332031 C 61.820312 117.140625 61.890625 116.976562 62.015625 116.859375 C 62.132812 116.75 62.289062 116.6875 62.464844 116.6875 C 62.640625 116.6875 62.804688 116.75 62.921875 116.859375 C 63.039062 116.976562 63.109375 117.140625 63.109375 117.332031 L 63.109375 118.15625 C 63.109375 118.359375 63.039062 118.515625 62.921875 118.625 C 62.804688 118.738281 62.640625 118.800781 62.464844 118.800781 Z M 62.464844 118.800781 "/>
<path style=" stroke:none;fill-rule:nonzero;fill:rgb(7.058824%,54.509807%,74.901962%);fill-opacity:1;" d="M 70.34375 119.332031 C 70.421875 119.332031 70.484375 119.308594 70.53125 119.257812 C 70.582031 119.207031 70.609375 119.144531 70.609375 119.070312 L 70.609375 118.5 L 71.234375 118.5 C 71.558594 118.5 71.84375 118.375 72.0625 118.164062 C 72.28125 117.953125 72.402344 117.664062 72.402344 117.351562 C 72.402344 117.027344 72.269531 116.707031 72.0625 116.5 C 71.84375 116.289062 71.550781 116.164062 71.234375 116.164062 L 70.34375 116.164062 C 70.277344 116.164062 70.214844 116.1875 70.15625 116.238281 C 70.113281 116.289062 70.082031 116.359375 70.082031 116.425781 L 70.082031 119.070312 C 70.082031 119.144531 70.109375 119.207031 70.15625 119.257812 C 70.207031 119.308594 70.269531 119.332031 70.34375 119.332031 Z M 70.609375 117.96875 L 70.609375 116.695312 L 71.246094 116.695312 C 71.414062 116.695312 71.570312 116.765625 71.6875 116.890625 C 71.800781 117 71.871094 117.183594 71.871094 117.351562 C 71.871094 117.507812 71.800781 117.664062 71.6875 117.777344 C 71.570312 117.902344 71.414062 117.96875 71.246094 117.96875 Z M 70.609375 117.96875 "/>
<path style=" stroke:none;fill-rule:nonzero;fill:rgb(7.058824%,54.509807%,74.901962%);fill-opacity:1;" d="M 75.425781 119.3125 C 75.492188 119.3125 75.5625 119.28125 75.613281 119.238281 C 75.664062 119.183594 75.6875 119.121094 75.6875 119.050781 L 75.6875 118.476562 L 76.101562 118.476562 L 76.851562 119.234375 C 76.894531 119.28125 76.957031 119.308594 77.03125 119.308594 C 77.09375 119.308594 77.164062 119.277344 77.210938 119.234375 C 77.269531 119.175781 77.292969 119.113281 77.292969 119.046875 C 77.292969 118.976562 77.269531 118.914062 77.21875 118.859375 L 76.761719 118.390625 C 76.96875 118.300781 77.144531 118.15625 77.269531 117.976562 C 77.394531 117.796875 77.46875 117.570312 77.46875 117.339844 C 77.46875 116.996094 77.34375 116.714844 77.125 116.496094 C 76.914062 116.289062 76.617188 116.164062 76.300781 116.164062 L 75.425781 116.164062 C 75.351562 116.164062 75.289062 116.1875 75.238281 116.238281 C 75.1875 116.289062 75.164062 116.359375 75.164062 116.425781 L 75.164062 119.050781 C 75.164062 119.125 75.1875 119.1875 75.238281 119.238281 C 75.289062 119.289062 75.351562 119.3125 75.425781 119.3125 Z M 75.6875 117.945312 L 75.6875 116.695312 L 76.3125 116.695312 C 76.480469 116.695312 76.636719 116.765625 76.75 116.882812 C 76.867188 116.996094 76.9375 117.171875 76.9375 117.339844 C 76.9375 117.5 76.867188 117.652344 76.757812 117.765625 C 76.644531 117.875 76.480469 117.945312 76.304688 117.945312 Z M 75.6875 117.945312 "/>
<path style=" stroke:none;fill-rule:nonzero;fill:rgb(7.058824%,54.509807%,74.901962%);fill-opacity:1;" d="M 81.449219 119.332031 C 81.765625 119.332031 82.058594 119.214844 82.277344 119 C 82.496094 118.789062 82.621094 118.488281 82.621094 118.15625 L 82.621094 117.339844 C 82.621094 117 82.496094 116.703125 82.277344 116.488281 C 82.058594 116.28125 81.765625 116.15625 81.449219 116.15625 C 81.136719 116.15625 80.835938 116.28125 80.621094 116.488281 C 80.402344 116.707031 80.273438 117 80.273438 117.339844 L 80.273438 118.15625 C 80.273438 118.488281 80.402344 118.78125 80.621094 119 C 80.835938 119.214844 81.136719 119.332031 81.449219 119.332031 Z M 81.449219 118.800781 C 81.273438 118.800781 81.117188 118.738281 80.996094 118.625 C 80.871094 118.515625 80.804688 118.359375 80.804688 118.15625 L 80.804688 117.332031 C 80.804688 117.140625 80.871094 116.976562 80.996094 116.859375 C 81.117188 116.75 81.273438 116.6875 81.449219 116.6875 C 81.621094 116.6875 81.785156 116.75 81.902344 116.859375 C 82.023438 116.976562 82.089844 117.140625 82.089844 117.332031 L 82.089844 118.15625 C 82.089844 118.359375 82.023438 118.515625 81.902344 118.625 C 81.785156 118.738281 81.621094 118.800781 81.449219 118.800781 Z M 81.449219 118.800781 "/>
<path style=" stroke:none;fill-rule:nonzero;fill:rgb(7.058824%,54.509807%,74.901962%);fill-opacity:1;" d="M 86.65625 119.308594 C 86.910156 119.308594 87.148438 119.203125 87.324219 119.019531 C 87.5 118.839844 87.605469 118.601562 87.605469 118.34375 C 87.605469 118.09375 87.5 117.863281 87.324219 117.703125 C 87.15625 117.546875 86.910156 117.453125 86.65625 117.453125 L 86.261719 117.453125 C 86.1875 117.453125 86.113281 117.414062 86.042969 117.351562 C 85.972656 117.277344 85.9375 117.183594 85.9375 117.078125 C 85.9375 116.96875 85.980469 116.859375 86.035156 116.796875 C 86.097656 116.734375 86.175781 116.695312 86.25 116.695312 L 87.15625 116.695312 C 87.355469 116.695312 87.46875 116.601562 87.46875 116.421875 C 87.46875 116.25 87.355469 116.164062 87.15625 116.164062 L 86.34375 116.164062 C 86.085938 116.164062 85.855469 116.265625 85.679688 116.433594 C 85.511719 116.601562 85.410156 116.859375 85.410156 117.109375 C 85.410156 117.359375 85.511719 117.582031 85.679688 117.738281 C 85.855469 117.890625 86.085938 117.976562 86.34375 117.976562 L 86.71875 117.976562 C 86.800781 117.976562 86.886719 118.015625 86.957031 118.078125 C 87.035156 118.15625 87.074219 118.257812 87.074219 118.375 C 87.074219 118.488281 87.03125 118.59375 86.960938 118.671875 C 86.886719 118.738281 86.800781 118.78125 86.722656 118.78125 L 85.835938 118.78125 C 85.644531 118.78125 85.53125 118.871094 85.53125 119.027344 C 85.53125 119.195312 85.648438 119.308594 85.835938 119.308594 Z M 86.65625 119.308594 "/>
<path style=" stroke:none;fill-rule:nonzero;fill:rgb(7.058824%,54.509807%,74.901962%);fill-opacity:1;" d="M 90.707031 119.332031 C 90.78125 119.332031 90.84375 119.308594 90.894531 119.257812 C 90.945312 119.207031 90.96875 119.144531 90.96875 119.070312 L 90.96875 118.5 L 91.59375 118.5 C 91.917969 118.5 92.207031 118.375 92.425781 118.164062 C 92.644531 117.953125 92.761719 117.664062 92.761719 117.351562 C 92.761719 117.027344 92.632812 116.707031 92.425781 116.5 C 92.207031 116.289062 91.914062 116.164062 91.59375 116.164062 L 90.707031 116.164062 C 90.636719 116.164062 90.574219 116.1875 90.519531 116.238281 C 90.476562 116.289062 90.445312 116.359375 90.445312 116.425781 L 90.445312 119.070312 C 90.445312 119.144531 90.46875 119.207031 90.519531 119.257812 C 90.570312 119.308594 90.632812 119.332031 90.707031 119.332031 Z M 90.96875 117.96875 L 90.96875 116.695312 L 91.605469 116.695312 C 91.773438 116.695312 91.929688 116.765625 92.050781 116.890625 C 92.164062 117 92.230469 117.183594 92.230469 117.351562 C 92.230469 117.507812 92.164062 117.664062 92.050781 117.777344 C 91.929688 117.902344 91.773438 117.96875 91.605469 117.96875 Z M 90.96875 117.96875 "/>
<path style=" stroke:none;fill-rule:nonzero;fill:rgb(7.058824%,54.509807%,74.901962%);fill-opacity:1;" d="M 97.265625 119.308594 C 97.34375 119.308594 97.40625 119.28125 97.453125 119.234375 C 97.503906 119.183594 97.53125 119.121094 97.53125 119.046875 C 97.53125 118.976562 97.5 118.90625 97.453125 118.859375 C 97.398438 118.808594 97.34375 118.78125 97.265625 118.78125 L 96.066406 118.78125 L 96.066406 117.964844 L 96.953125 117.964844 C 97.03125 117.964844 97.09375 117.9375 97.140625 117.890625 C 97.191406 117.84375 97.21875 117.78125 97.21875 117.707031 C 97.21875 117.640625 97.191406 117.578125 97.140625 117.527344 C 97.09375 117.476562 97.03125 117.453125 96.953125 117.453125 L 96.066406 117.453125 L 96.066406 116.695312 L 97.265625 116.695312 C 97.34375 116.695312 97.398438 116.671875 97.453125 116.613281 C 97.503906 116.5625 97.53125 116.5 97.53125 116.425781 C 97.53125 116.359375 97.5 116.289062 97.453125 116.238281 C 97.398438 116.1875 97.34375 116.164062 97.265625 116.164062 L 95.804688 116.164062 C 95.730469 116.164062 95.667969 116.1875 95.617188 116.238281 C 95.566406 116.289062 95.542969 116.351562 95.542969 116.425781 L 95.542969 119.046875 C 95.542969 119.1875 95.640625 119.296875 95.785156 119.308594 Z M 97.265625 119.308594 "/>
<path style=" stroke:none;fill-rule:nonzero;fill:rgb(7.058824%,54.509807%,74.901962%);fill-opacity:1;" d="M 100.5625 119.3125 C 100.628906 119.3125 100.699219 119.28125 100.75 119.238281 C 100.796875 119.183594 100.824219 119.121094 100.824219 119.050781 L 100.824219 118.476562 L 101.234375 118.476562 L 101.984375 119.234375 C 102.03125 119.28125 102.09375 119.308594 102.167969 119.308594 C 102.230469 119.308594 102.296875 119.277344 102.347656 119.234375 C 102.40625 119.175781 102.429688 119.113281 102.429688 119.046875 C 102.429688 118.976562 102.40625 118.914062 102.355469 118.859375 L 101.898438 118.390625 C 102.105469 118.300781 102.28125 118.15625 102.40625 117.976562 C 102.53125 117.796875 102.605469 117.570312 102.605469 117.339844 C 102.605469 116.996094 102.480469 116.714844 102.261719 116.496094 C 102.046875 116.289062 101.753906 116.164062 101.4375 116.164062 L 100.5625 116.164062 C 100.484375 116.164062 100.421875 116.1875 100.375 116.238281 C 100.324219 116.289062 100.296875 116.359375 100.296875 116.425781 L 100.296875 119.050781 C 100.296875 119.125 100.324219 119.1875 100.375 119.238281 C 100.421875 119.289062 100.484375 119.3125 100.5625 119.3125 Z M 100.824219 117.945312 L 100.824219 116.695312 L 101.449219 116.695312 C 101.617188 116.695312 101.773438 116.765625 101.886719 116.882812 C 102.003906 116.996094 102.074219 117.171875 102.074219 117.339844 C 102.074219 117.5 102.003906 117.652344 101.890625 117.765625 C 101.78125 117.875 101.617188 117.945312 101.441406 117.945312 Z M 100.824219 117.945312 "/>
<path style=" stroke:none;fill-rule:nonzero;fill:rgb(7.058824%,54.509807%,74.901962%);fill-opacity:1;" d="M 105.703125 119.328125 C 105.777344 119.328125 105.839844 119.300781 105.890625 119.25 C 105.941406 119.207031 105.964844 119.144531 105.964844 119.070312 L 105.964844 116.421875 C 105.964844 116.269531 105.851562 116.164062 105.703125 116.164062 C 105.632812 116.164062 105.570312 116.1875 105.515625 116.238281 C 105.464844 116.289062 105.441406 116.351562 105.441406 116.421875 L 105.441406 119.070312 C 105.441406 119.144531 105.464844 119.203125 105.515625 119.25 C 105.566406 119.300781 105.628906 119.328125 105.703125 119.328125 Z M 105.703125 119.328125 "/>
<path style=" stroke:none;fill-rule:nonzero;fill:rgb(7.058824%,54.509807%,74.901962%);fill-opacity:1;" d="M 109.914062 119.332031 C 109.988281 119.332031 110.050781 119.308594 110.101562 119.257812 C 110.148438 119.203125 110.179688 119.140625 110.179688 119.070312 L 110.179688 116.6875 L 110.851562 116.6875 C 110.917969 116.6875 110.988281 116.65625 111.039062 116.613281 C 111.085938 116.5625 111.117188 116.5 111.117188 116.433594 C 111.117188 116.359375 111.085938 116.296875 111.039062 116.238281 C 110.988281 116.195312 110.917969 116.164062 110.851562 116.164062 L 108.988281 116.164062 C 108.914062 116.164062 108.851562 116.1875 108.800781 116.238281 C 108.75 116.289062 108.726562 116.351562 108.726562 116.425781 C 108.726562 116.5 108.75 116.5625 108.800781 116.613281 C 108.851562 116.664062 108.914062 116.6875 108.988281 116.6875 L 109.65625 116.6875 L 109.65625 119.070312 C 109.65625 119.21875 109.769531 119.332031 109.914062 119.332031 Z M 109.914062 119.332031 "/>
<path style=" stroke:none;fill-rule:nonzero;fill:rgb(7.058824%,54.509807%,74.901962%);fill-opacity:1;" d="M 114.847656 119.308594 C 114.917969 119.308594 114.984375 119.277344 115.035156 119.226562 C 115.085938 119.175781 115.109375 119.113281 115.109375 119.039062 L 115.109375 118.183594 C 115.339844 118.113281 115.542969 117.976562 115.679688 117.78125 C 115.824219 117.59375 115.898438 117.359375 115.898438 117.101562 L 115.898438 116.425781 C 115.898438 116.269531 115.785156 116.164062 115.636719 116.164062 C 115.558594 116.164062 115.496094 116.1875 115.449219 116.238281 C 115.390625 116.289062 115.367188 116.351562 115.367188 116.425781 L 115.367188 117.132812 C 115.367188 117.296875 115.308594 117.4375 115.203125 117.546875 C 115.097656 117.652344 114.960938 117.714844 114.796875 117.714844 C 114.640625 117.714844 114.496094 117.652344 114.390625 117.546875 C 114.285156 117.4375 114.214844 117.300781 114.214844 117.144531 L 114.214844 116.425781 C 114.214844 116.269531 114.109375 116.164062 113.953125 116.164062 C 113.886719 116.164062 113.816406 116.1875 113.765625 116.238281 C 113.714844 116.289062 113.691406 116.351562 113.691406 116.425781 L 113.691406 117.164062 C 113.703125 117.394531 113.785156 117.625 113.941406 117.8125 C 114.105469 118.015625 114.328125 118.15625 114.578125 118.203125 L 114.578125 119.039062 C 114.578125 119.113281 114.605469 119.175781 114.660156 119.226562 C 114.710938 119.28125 114.773438 119.308594 114.847656 119.308594 Z M 114.847656 119.308594 "/>
</g>
</svg>
